<?xml version="1.0" encoding="UTF-8"?>
<svg width="512px" height="512px" viewBox="0 0 512 512" version="1.1" xmlns="http://www.w3.org/2000/svg" xmlns:xlink="http://www.w3.org/1999/xlink">
    <!-- Generator: Sketch 49.2 (51160) - http://www.bohemiancoding.com/sketch -->
    <title>js-logo</title>
    <desc>Created with Sketch.</desc>
    <defs></defs>
    <g id="Page-1" stroke="none" stroke-width="1" fill="none" fill-rule="evenodd">
        <g id="js-logo">
            <polygon id="Fill-1" fill="#F7DF1E" points="0 512 512 512 512 0 0 0"></polygon>
            <g id="Group-6" transform="translate(133.120000, 230.400000)" fill="#000000">
                <path d="M1.503744,197.465088 L40.684544,173.751808 C48.244224,187.155968 55.120384,198.494208 71.614464,198.494208 C87.425024,198.494208 97.393664,192.309248 97.393664,168.255488 L97.393664,4.658688 L145.506304,4.658688 L145.506304,168.933888 C145.506304,218.766848 116.294144,241.453568 73.675264,241.453568 C35.185664,241.453568 12.844544,221.518848 1.503744,197.459968" id="Fill-2"></path>
                <path d="M171.642624,192.310016 L210.818304,169.625856 C221.132544,186.468096 234.536704,198.840576 258.249984,198.840576 C278.184704,198.840576 290.897664,188.871936 290.897664,175.124736 C290.897664,158.628096 277.839104,152.786176 255.843584,143.165696 L243.816704,138.004736 C209.103104,123.230976 186.075904,104.670976 186.075904,65.490176 C186.075904,29.401856 213.567744,1.907456 256.532224,1.907456 C287.119104,1.907456 309.114624,12.562176 324.922624,40.399616 L287.462144,64.458496 C279.213824,49.679616 270.279424,43.837696 256.532224,43.837696 C242.441984,43.837696 233.505024,52.774656 233.505024,64.458496 C233.505024,78.891776 242.441984,84.736256 263.060224,93.673216 L275.087104,98.826496 C315.988224,116.357376 339.015424,134.228736 339.015424,174.438656 C339.015424,217.746176 304.990464,241.454336 259.281664,241.454336 C214.601984,241.454336 185.730304,220.147456 171.642624,192.310016" id="Fill-4"></path>
            </g>
        </g>
    </g>
</svg>